<?xml version="1.0" standalone="no"?>
<!DOCTYPE svg PUBLIC "-//W3C//DTD SVG 20010904//EN"
 "http://www.w3.org/TR/2001/REC-SVG-20010904/DTD/svg10.dtd">
<svg version="1.0" xmlns="http://www.w3.org/2000/svg"
 width="156.000000pt" height="156.000000pt" viewBox="0 0 156.000000 156.000000"
 preserveAspectRatio="xMidYMid meet">
<metadata>
Created by potrace 1.14, written by Peter Selinger 2001-2017
</metadata>
<g transform="translate(0.000000,156.000000) scale(0.100000,-0.100000)"
fill="#000000" stroke="none">
<path d="M410 1414 c-42 -46 -43 -48 -22 -57 12 -6 22 -16 22 -24 0 -8 5 -11
10 -8 6 3 10 -1 10 -10 0 -9 4 -14 9 -10 5 3 12 -4 16 -15 3 -11 12 -20 18
-21 7 0 38 -29 69 -64 31 -35 59 -60 62 -57 3 3 6 0 6 -6 0 -6 12 -22 26 -35
l26 -25 -36 -4 c-20 -2 -41 -1 -48 3 -6 4 -22 3 -35 -2 -15 -5 -23 -5 -23 2 0
6 -6 7 -17 0 -10 -5 -26 -5 -40 0 -14 5 -23 5 -23 -1 0 -5 -9 -6 -22 -1 -13 4
-35 5 -50 0 -15 -4 -30 -4 -33 1 -3 5 -18 5 -34 0 -15 -4 -34 -4 -41 0 -7 5
-24 4 -37 -1 -14 -5 -23 -5 -23 1 0 6 -9 6 -23 1 -14 -5 -30 -5 -40 0 -11 7
-17 6 -17 0 0 -7 -8 -7 -25 -1 -15 6 -26 6 -30 -1 -4 -5 -11 -7 -16 -3 -6 3
-18 -2 -27 -12 -16 -16 -17 -59 -14 -496 l2 -478 769 0 c724 0 768 1 769 18 4
70 1 956 -4 963 -3 5 -10 7 -15 4 -5 -4 -9 -1 -9 5 0 8 -6 8 -20 0 -14 -8 -20
-8 -20 0 0 7 -6 8 -17 2 -10 -5 -27 -8 -38 -5 -34 6 -213 6 -224 -1 -6 -4 -11
-3 -11 3 0 7 -8 7 -24 1 -15 -5 -27 -5 -34 2 -7 7 -17 6 -31 -1 -15 -8 -21 -8
-21 -1 0 8 -6 8 -20 0 -14 -8 -20 -8 -20 0 0 8 -6 8 -20 0 -14 -8 -20 -8 -20
0 0 7 -6 8 -17 2 -10 -5 -33 -7 -51 -5 -32 5 -32 6 -12 23 11 9 20 23 20 29 0
7 5 9 10 6 6 -3 10 2 10 11 0 10 3 14 7 11 3 -4 14 4 23 19 10 14 20 25 24 25
3 -1 7 2 7 7 1 4 16 17 32 30 17 12 28 22 25 22 -3 0 10 17 31 38 20 21 38 38
41 38 3 -1 6 3 7 7 1 5 9 14 19 21 15 11 14 16 -16 49 -18 20 -40 37 -51 37
-10 0 -33 -19 -51 -44 -18 -25 -43 -50 -55 -57 -12 -7 -20 -16 -17 -21 3 -4
-2 -8 -10 -8 -9 0 -16 -3 -16 -7 0 -9 -100 -116 -100 -108 0 3 -14 -10 -31
-30 -37 -41 -46 -43 -78 -10 -13 14 -26 25 -30 25 -4 0 -14 11 -21 25 -7 13
-16 23 -19 21 -3 -2 -24 18 -46 45 -22 26 -43 48 -46 48 -4 1 -36 31 -71 67
l-64 66 -44 -48z"/>
</g>
</svg>
